<svg xmlns="http://www.w3.org/2000/svg">
    <defs>
        <linearGradient id="apple-gradient" x1="19" y1="3" x2="19" y2="35" gradientUnits="userSpaceOnUse"><stop stop-color="#f452ff"/><stop offset="1" stop-color="#832bc1"/></linearGradient>
        <linearGradient id="castbox-gradient" x1=".76" y1=".55" x2="41.67" y2="31.5" gradientUnits="userSpaceOnUse"><stop stop-color="#ffb768"/><stop offset=".19" stop-color="#ff9953"/><stop offset=".57" stop-color="#ff652e"/><stop offset=".85" stop-color="#ff4518"/><stop offset="1" stop-color="#ff390f"/></linearGradient>
    </defs>
    <symbol id="11ty" viewBox="0 0 38 38" fill="currentColor"><path d="M15.3 6.16a.76.76 0 00-.7-.47c-.1 0-.19 0-.28.03l-4.65 1.2c-.3.06-.78.31-.78 1.24v1.69c0 .72.24 1.26.89 1.23.07 0 .25-.05 1.14-.28v19.5c0 .46.05.8.14 1.05.2.54.6.6.76.6h2.7c.17 0 .57-.06.77-.59.1-.25.15-.6.15-1.05V6.98c0-.35-.04-.62-.14-.82zm11.17 22.82a.87.87 0 00-.73-.35h-1.25c-.38-.02-.5-.03-.78-.36-.09-.1-.2-.32-.3-.8-.25-.9-.07-9.49-.12-10.61h2.01c.32 0 .6-.17.74-.46.11-.21.17-.49.17-.85v-.95c0-.37-.06-.65-.17-.86a.82.82 0 00-.74-.47h-2V6.4c0-.38-.06-.68-.16-.9a.81.81 0 00-.75-.49h-1.77c-.3 0-.57.18-.73.5-.1.2-.16.49-.18.87 0 .05-.33 6.86-.32 6.9h-.83c-.32 0-.6.17-.75.47-.1.21-.16.5-.16.86v.95c0 1.18.64 1.3.9 1.3h.84v8.95c0 1.62.19 3.26.88 4.48a3.58 3.58 0 002.33 1.6c.38.07.8.1 1.31.1h1.8c.23 0 .97-.09.97-1.18v-1.06c.01-.27-.06-.53-.2-.76zM37.9 13.72a.7.7 0 00-.65-.45h-1.48a.93.93 0 00-.74.36c-.16.2-.26.5-.31.94l-1.48 9.87-1.88-9.95c-.07-.44-.19-.73-.37-.91a1 1 0 00-.74-.3h-2.13c-.56 0-.74.54-.73 1.09.14 1.5 3.84 15.53 3.86 16.73a4.2 4.2 0 01-.27 1.69c-.14.32-.26.4-.28.4a3.4 3.4 0 01-.65-.17c-.67-.2-.7-.2-.77-.2-.17 0-.57.07-.76.65-.15.43-.22 1.88.1 2.2.44.68 1.41 1 2.5.95 1.55-.07 2.23-.66 2.86-2.16.8-1.77 3.47-17.33 4-19.58a2.3 2.3 0 00-.08-1.17zM6.42 6.19a.76.76 0 00-.71-.47c-.1 0-.18 0-.27.03L.78 6.95c-.3.07-.78.31-.78 1.24v1.7c0 .71.24 1.26.89 1.22.06 0 .24-.04 1.14-.27v19.5c0 .45.04.8.14 1.05.2.53.6.59.76.59h2.7c.17 0 .57-.06.78-.6.1-.24.14-.59.14-1.04V7c0-.35-.04-.61-.13-.81z"/></symbol>
    <symbol id="apple" viewBox="0 0 38 38"><path d="M34.37 30.74a6.76 6.76 0 01-4.3 3.85c-1.03.3-2.3.41-3.87.41H11.8c-1.57 0-2.84-.1-3.87-.4a6.7 6.7 0 01-4.3-3.86c-.62-1.6-.63-3.4-.63-4.54V11.8c0-1.14 0-2.94.63-4.54a6.76 6.76 0 014.3-3.85C8.96 3.1 10.23 3 11.8 3h14.4c1.57 0 2.84.1 3.87.4a6.7 6.7 0 014.3 3.86c.62 1.6.63 3.4.63 4.54v14.4c0 1.14 0 2.94-.63 4.54z" fill="url(#apple-gradient)"/><path d="M21.32 21.4a3.2 3.2 0 00-2.32-.84c-1 0-1.84.33-2.32.83-.25.27-.38.54-.42.92-.08.75-.04 1.4.05 2.43.08.98.24 2.28.45 3.62.15.94.26 1.46.37 1.82.18.6.84 1.11 1.87 1.11 1.03 0 1.7-.51 1.87-1.1.1-.37.23-.89.37-1.83.21-1.34.37-2.64.45-3.62.1-1.03.14-1.68.06-2.43a1.47 1.47 0 00-.43-.92zm-4.93-4.52a2.62 2.62 0 105.23 0 2.62 2.62 0 00-5.23 0zm2.58-10.33a11.28 11.28 0 00-11.22 11.1c-.06 4.97 3.1 9.21 7.53 10.77.1.04.22-.05.2-.17l-.16-1.15a.39.39 0 00-.23-.3 9.83 9.83 0 013.83-18.81 9.82 9.82 0 014 18.8.39.39 0 00-.23.31l-.16 1.15c-.02.12.1.2.2.17a11.27 11.27 0 00-3.76-21.87zm-.2 5.16a6.1 6.1 0 014.41 10.54c-.1.1-.15.23-.15.36.03.42.02.83 0 1.29-.02.12.12.2.22.13a7.54 7.54 0 10-8.48 0c.1.07.24 0 .23-.13-.03-.46-.04-.87-.02-1.29a.47.47 0 00-.14-.36 6.08 6.08 0 013.93-10.54z" fill="#fff"/></symbol>
    <symbol id="castbox" viewBox="0 0 38 38"><path d="M17.75.82l-13.51 8A2.7 2.7 0 003 10.97v16.04c0 .82.53 1.75 1.24 2.17l13.5 8c.72.42 1.8.42 2.51 0l13.51-8A2.7 2.7 0 0035 27.02V10.98a2.7 2.7 0 00-1.24-2.17l-13.5-8a2.63 2.63 0 00-2.51 0z" fill="url(#castbox-gradient)"/><path d="M21.2 14.2c-.6 0-1.1.46-1.1 1.04v2.52c0 .32-.29.57-.65.57-.36 0-.66-.25-.66-.57v-3.43c0-.57-.5-1.04-1.1-1.04-.6 0-1.1.47-1.1 1.04v2.75c0 .32-.3.57-.65.57-.37 0-.66-.25-.66-.57v-1c0-.57-.5-1.04-1.1-1.04-.6 0-1.1.47-1.1 1.04v2.36c0 .32-.3.57-.66.57-.36 0-.66-.25-.66-.57v-.28c0-.6-.49-1.08-1.1-1.08-.6 0-1.1.48-1.1 1.08v3.28c0 .6.5 1.09 1.1 1.09.61 0 1.1-.5 1.1-1.1v-.27c0-.32.3-.57.66-.57.37 0 .66.25.66.57v3.74c0 .57.5 1.04 1.1 1.04.6 0 1.1-.47 1.1-1.04v-5.1c0-.32.3-.58.66-.58.36 0 .65.26.65.58v2.57c0 .57.5 1.04 1.1 1.04.6 0 1.1-.47 1.1-1.04v-1.89c0-.32.3-.58.66-.58.36 0 .66.26.66.58v2.02c0 .57.49 1.04 1.1 1.04.6 0 1.1-.47 1.1-1.04v-7.26c0-.58-.5-1.04-1.1-1.04zM24.72 17.01c-.6 0-1.1.47-1.1 1.04v4.15c0 .57.5 1.04 1.1 1.04.6 0 1.1-.47 1.1-1.04v-4.15c0-.57-.5-1.04-1.1-1.04zM27.13 20.16c0-.57.5-1.04 1.1-1.04.6 0 1.1.47 1.1 1.04v1.03c0 .58-.5 1.04-1.1 1.04-.6 0-1.1-.46-1.1-1.04v-1.03z" fill="#fff"/></symbol>
    <symbol id="google" viewBox="0 0 38 38"><path d="M19 35a16 16 0 100-32 16 16 0 000 32z" fill="#fff"/><rect x="27.18" y="16.89" width="2.72" height="4.21" rx="1.36" fill="#4285f4"/><rect x="22.47" y="12.43" width="2.72" height="4.21" rx="1.36" fill="#34a853"/><rect x="22.47" y="18.01" width="2.72" height="7.56" rx="1.36" fill="#34a853"/><rect x="17.64" y="8.09" width="2.72" height="4.21" rx="1.36" fill="#fab908"/><rect x="17.64" y="25.7" width="2.72" height="4.21" rx="1.36" fill="#fab908"/><rect x="17.64" y="13.67" width="2.72" height="10.66" rx="1.36" fill="#fab908"/><rect x="12.8" y="21.36" width="2.72" height="4.21" rx="1.36" fill="#ea4335"/><rect x="12.8" y="12.43" width="2.72" height="7.56" rx="1.36" fill="#ea4335"/><rect x="8.09" y="16.89" width="2.72" height="4.21" rx="1.36" fill="#0066d9"/></symbol>
    <symbol id="overcast" viewBox="0 0 38 38"><circle cx="19" cy="19" r="16" fill="#fc7e0f"/><path d="M19 28.67l1.2-1.2-1.2-4.6-1.2 4.6 1.2 1.2zm-1.53-.07l-.6 2.27 1.4-1.4-.8-.87zm3.06 0l-.8.8 1.4 1.4-.6-2.2zm1.14 4.13L19 30.07l-2.67 2.66c.87.14 1.74.27 2.67.27.93 0 1.8-.07 2.67-.27zM19 5a14 14 0 00-4.6 27.2l3-11.13a2.67 2.67 0 011.6-4.8c1.47 0 2.67 1.2 2.67 2.66 0 .87-.4 1.6-1.07 2.14l3 11.13A14 14 0 0019 5zm9.13 20.93c-.33.4-.93.54-1.4.2a.9.9 0 01-.2-1.33s1.8-2.4 1.8-5.8-1.8-5.8-1.8-5.8a.9.9 0 01.2-1.33c.47-.34 1.07-.2 1.4.2.14.13 2.2 2.86 2.2 6.93s-2.06 6.8-2.2 6.93zm-4.86-2.6c-.4-.4-.34-1.13.06-1.53 0 0 1-1.07 1-2.8 0-1.73-1-2.73-1-2.8-.4-.4-.4-1.07-.06-1.53.4-.47 1-.47 1.4-.07a6.65 6.65 0 010 8.8c-.4.4-1 .33-1.4-.07zm-8.54 0c-.4.4-1 .47-1.4.07-.06-.13-1.66-1.73-1.66-4.4 0-2.67 1.6-4.27 1.66-4.4.4-.4 1.07-.4 1.4.07.4.4.34 1.13-.06 1.53 0 .07-1 1.07-1 2.8 0 1.73 1 2.8 1 2.8.4.4.46 1.07.06 1.53zm-3.46 2.8c-.47.34-1.07.2-1.4-.2-.14-.13-2.2-2.86-2.2-6.93s2.06-6.8 2.2-6.93c.33-.4.93-.54 1.4-.2a.9.9 0 01.2 1.33s-1.8 2.4-1.8 5.8 1.8 5.8 1.8 5.8c.33.4.2 1-.2 1.33z" fill="#fff"/></symbol>
    <symbol id="pocket" viewBox="0 0 38 38"><path d="M35 19a16 16 0 11-32 0 16 16 0 0132 0z" fill="#f43e37"/><path d="M6.56 19a12.44 12.44 0 1124.88 0h-3.1A9.33 9.33 0 1019 28.33v3.11A12.44 12.44 0 016.56 19zM19 26.47A7.47 7.47 0 1126.47 19h-2.72A4.75 4.75 0 1019 23.75v2.72z" fill="#fff"/></symbol>
    <symbol id="rss" viewBox="0 0 38 38"><path d="M28.13 3H9.88A6.87 6.87 0 003 9.88v18.24C3 31.93 6.08 35 9.88 35h18.24c3.8 0 6.88-3.08 6.88-6.88V9.88C35 6.08 31.92 3 28.12 3z" fill="#f18a35"/><path d="M11.02 30a3.02 3.02 0 100-6.03 3.02 3.02 0 000 6.03z" fill="#fff"/><path d="M22.58 30h-4.27A10.3 10.3 0 008 19.7v-4.28A14.58 14.58 0 0122.58 30z" fill="#fff"/><path d="M25.6 30A17.6 17.6 0 008 12.4V8a22 22 0 0122 22h-4.4z" fill="#fff"/></symbol>
    <symbol id="spotify" viewBox="0 0 38 38"><path fill-rule="evenodd" d="M19 35a16 16 0 100-32 16 16 0 000 32zM9.9 15.02c5.06-1.55 13.8-1.26 19.09 1.92.73.43 1.67.2 2.1-.55.43-.73.2-1.69-.53-2.13-6.1-3.65-15.74-4-21.55-2.22A1.56 1.56 0 008 13.98c.25.82 1.1 1.29 1.92 1.04zm17.02 7.48c.6.37 1.37.18 1.74-.42.36-.61.18-1.4-.42-1.78-5-3.15-12.3-4.03-18.19-2.2a1.3 1.3 0 00-.84 1.6c.2.69.9 1.08 1.57.87 5.15-1.6 11.79-.8 16.14 1.93zm-1.48 4.36c.48.28 1.11.13 1.41-.33a.96.96 0 00-.34-1.36c-4.33-2.54-9.7-3.13-15.95-1.76a.98.98 0 00-.76 1.18c.12.53.67.86 1.22.74 5.72-1.25 10.57-.74 14.42 1.53z" fill="#64d77e"/></symbol>
    <symbol id="twitter" viewBox="0 0 38 38"><path d="M19 35a16 16 0 100-32 16 16 0 000 32z" fill="#1da1f2"/><path d="M26.9 16.23v-.5a7.74 7.74 0 001.88-1.95c-.7.3-1.43.5-2.18.6a3.82 3.82 0 001.67-2.1c-.75.44-1.56.75-2.41.92a3.79 3.79 0 00-6.45 3.46 10.76 10.76 0 01-7.81-3.96 3.79 3.79 0 001.18 5.05c-.6-.02-1.2-.18-1.72-.47v.04a3.79 3.79 0 003.04 3.72c-.56.15-1.15.18-1.71.07a3.79 3.79 0 003.54 2.63 7.6 7.6 0 01-5.61 1.57 10.7 10.7 0 005.8 1.7c6.97 0 10.78-5.78 10.78-10.78z" fill="#fff"/></symbol>
</svg>
