<svg xmlns="http://www.w3.org/2000/svg">
    <symbol id="twitter" viewBox="0 0 38 38"><circle cx="19" cy="19" r="16" fill="currentColor"/><path d="M26.9 15.73v.5c0 5-3.81 10.78-10.78 10.78-2.06 0-4.07-.6-5.8-1.7a7.6 7.6 0 005.6-1.57 3.79 3.79 0 01-3.54-2.63c.57.1 1.16.08 1.71-.07a3.79 3.79 0 01-3.04-3.71v-.05c.53.3 1.12.45 1.72.47a3.79 3.79 0 01-1.17-5.05 10.76 10.76 0 007.8 3.96 3.79 3.79 0 016.46-3.46 7.71 7.71 0 002.41-.92 3.82 3.82 0 01-1.67 2.1 7.67 7.67 0 002.18-.6 7.74 7.74 0 01-1.88 1.95z" fill="#fff"/></symbol>
    <symbol id="11ty" viewBox="0 0 38 38" fill="currentColor"><path d="M15.3 6.16a.76.76 0 00-.7-.47c-.1 0-.19 0-.28.03l-4.65 1.2c-.3.06-.78.31-.78 1.24v1.69c0 .72.24 1.26.89 1.23.07 0 .25-.05 1.14-.28v19.5c0 .46.05.8.14 1.05.2.54.6.6.76.6h2.7c.17 0 .57-.06.77-.59.1-.25.15-.6.15-1.05V6.98c0-.35-.04-.62-.14-.82zm11.17 22.82a.87.87 0 00-.73-.35h-1.25c-.38-.02-.5-.03-.78-.36-.09-.1-.2-.32-.3-.8-.25-.9-.07-9.49-.12-10.61h2.01c.32 0 .6-.17.74-.46.11-.21.17-.49.17-.85v-.95c0-.37-.06-.65-.17-.86a.82.82 0 00-.74-.47h-2V6.4c0-.38-.06-.68-.16-.9a.81.81 0 00-.75-.49h-1.77c-.3 0-.57.18-.73.5-.1.2-.16.49-.18.87 0 .05-.33 6.86-.32 6.9h-.83c-.32 0-.6.17-.75.47-.1.21-.16.5-.16.86v.95c0 1.18.64 1.3.9 1.3h.84v8.95c0 1.62.19 3.26.88 4.48a3.58 3.58 0 002.33 1.6c.38.07.8.1 1.31.1h1.8c.23 0 .97-.09.97-1.18v-1.06c.01-.27-.06-.53-.2-.76zM37.9 13.72a.7.7 0 00-.65-.45h-1.48a.93.93 0 00-.74.36c-.16.2-.26.5-.31.94l-1.48 9.87-1.88-9.95c-.07-.44-.19-.73-.37-.91a1 1 0 00-.74-.3h-2.13c-.56 0-.74.54-.73 1.09.14 1.5 3.84 15.53 3.86 16.73a4.2 4.2 0 01-.27 1.69c-.14.32-.26.4-.28.4a3.4 3.4 0 01-.65-.17c-.67-.2-.7-.2-.77-.2-.17 0-.57.07-.76.65-.15.43-.22 1.88.1 2.2.44.68 1.41 1 2.5.95 1.55-.07 2.23-.66 2.86-2.16.8-1.77 3.47-17.33 4-19.58a2.3 2.3 0 00-.08-1.17zM6.42 6.19a.76.76 0 00-.71-.47c-.1 0-.18 0-.27.03L.78 6.95c-.3.07-.78.31-.78 1.24v1.7c0 .71.24 1.26.89 1.22.06 0 .24-.04 1.14-.27v19.5c0 .45.04.8.14 1.05.2.53.6.59.76.59h2.7c.17 0 .57-.06.78-.6.1-.24.14-.59.14-1.04V7c0-.35-.04-.61-.13-.81z"/></symbol>
</svg>
