<svg xmlns="http://www.w3.org/2000/svg">
    <symbol id="11ty" viewBox="0 0 44 38" fill="currentColor" fill-rule="evenodd"><path d="M18.3 6.16a.76.76 0 00-.7-.47c-.1 0-.19 0-.28.03l-4.65 1.2c-.3.06-.78.31-.78 1.24v1.69c0 .72.24 1.26.89 1.23.07 0 .25-.05 1.14-.28v19.5c0 .46.05.8.14 1.05.2.54.6.6.76.6h2.7c.17 0 .57-.06.77-.59.1-.25.15-.6.15-1.05V6.98c0-.35-.04-.62-.14-.82zm11.17 22.82a.87.87 0 00-.73-.35h-1.25c-.38-.02-.5-.03-.78-.36-.09-.1-.2-.32-.3-.8-.25-.9-.07-9.49-.12-10.61h2.01c.32 0 .6-.17.74-.46.11-.21.17-.49.17-.85v-.95c0-.37-.06-.65-.17-.86a.82.82 0 00-.74-.47h-2V6.4c0-.38-.06-.68-.16-.9a.81.81 0 00-.75-.49h-1.77c-.3 0-.57.18-.73.5-.1.2-.16.49-.18.87 0 .05-.33 6.86-.32 6.9h-.83c-.32 0-.6.17-.75.47-.1.21-.16.5-.16.86v.95c0 1.18.64 1.3.9 1.3h.84v8.95c0 1.62.19 3.26.88 4.48a3.58 3.58 0 002.33 1.6c.38.07.8.1 1.31.1h1.8c.23 0 .97-.09.97-1.18v-1.06c.01-.27-.06-.53-.2-.76zM40.9 13.72a.7.7 0 00-.65-.45h-1.48a.93.93 0 00-.74.36c-.16.2-.26.5-.31.94l-1.48 9.87-1.88-9.95c-.07-.44-.19-.73-.37-.91a1 1 0 00-.74-.3h-2.13c-.56 0-.74.54-.73 1.09.14 1.5 3.84 15.53 3.86 16.73a4.2 4.2 0 01-.27 1.69c-.14.32-.26.4-.28.4a3.4 3.4 0 01-.65-.17c-.67-.2-.7-.2-.77-.2-.17 0-.57.07-.76.65-.15.43-.22 1.88.1 2.2.44.68 1.41 1 2.5.95 1.55-.07 2.23-.66 2.86-2.16.8-1.77 3.47-17.33 4-19.58a2.3 2.3 0 00-.08-1.17zM9.42 6.19a.76.76 0 00-.71-.47c-.1 0-.18 0-.27.03l-4.66 1.2c-.3.07-.78.31-.78 1.24v1.7c0 .71.24 1.26.89 1.22.06 0 .24-.04 1.14-.27v19.5c0 .45.04.8.14 1.05.2.53.6.59.76.59h2.7c.17 0 .57-.06.78-.6.1-.24.14-.59.14-1.04V7c0-.35-.04-.61-.13-.81z"/></symbol>
    <symbol id="apple" viewBox="0 0 38 38" fill="currentColor" fill-rule="evenodd"><path d="M32.32 33.42a6.77 6.77 0 002.05-2.68c.62-1.6.63-3.4.63-4.54V11.8c0-1.14 0-2.94-.63-4.54a6.77 6.77 0 00-4.3-3.85C29.04 3.1 27.77 3 26.2 3H11.8c-1.57 0-2.84.1-3.87.4a6.7 6.7 0 00-4.3 3.86C3.01 8.86 3 10.66 3 11.8v14.4c0 1.14 0 2.94.63 4.54a6.76 6.76 0 004.3 3.85c1.03.3 2.3.41 3.87.41h14.4c1.57 0 2.84-.1 3.87-.4a6.7 6.7 0 002.25-1.18zM19 20.56c1 0 1.84.33 2.32.83.25.27.38.54.43.92.08.75.03 1.4-.06 2.43-.08.98-.24 2.28-.45 3.62-.14.94-.26 1.46-.37 1.82-.18.6-.84 1.11-1.87 1.11-1.03 0-1.69-.51-1.87-1.1-.1-.37-.22-.89-.37-1.83-.2-1.34-.37-2.64-.45-3.62a11.98 11.98 0 01-.05-2.43c.04-.38.17-.65.42-.92a3.2 3.2 0 012.32-.83zm0-1.06a2.62 2.62 0 110-5.24 2.62 2.62 0 010 5.24zM7.75 17.66a11.27 11.27 0 1114.98 10.76.15.15 0 01-.2-.17l.16-1.15c.02-.13.1-.25.23-.3a9.83 9.83 0 00-4-18.81A9.83 9.83 0 0015.1 26.8c.12.05.2.17.23.3l.16 1.15c.02.12-.1.2-.2.17a11.27 11.27 0 01-7.53-10.76zm17.36.14a6.1 6.1 0 10-10.27 4.45c.1.1.15.23.15.36-.03.42-.02.83 0 1.29.02.12-.12.2-.22.13a7.54 7.54 0 118.48 0c-.1.07-.24 0-.23-.13.03-.46.04-.87.01-1.29 0-.13.05-.27.15-.36a6.08 6.08 0 001.93-4.45z"/></symbol>
    <symbol id="castbox" viewBox="0 0 38 38" fill="currentColor" fill-rule="evenodd"><path d="M4.24 8.81l13.5-8a2.63 2.63 0 012.51 0l13.51 8A2.7 2.7 0 0135 10.98v16.04a2.7 2.7 0 01-1.24 2.17l-13.5 8c-.72.42-1.8.42-2.51 0l-13.51-8A2.7 2.7 0 013 27.02V10.98c0-.82.53-1.75 1.24-2.17zM21.2 14.2c-.61 0-1.1.46-1.1 1.04v2.52c0 .32-.3.57-.66.57-.36 0-.66-.25-.66-.57v-3.43c0-.57-.5-1.04-1.1-1.04-.6 0-1.1.47-1.1 1.04v2.75c0 .32-.3.57-.65.57-.37 0-.66-.25-.66-.57v-1c0-.57-.5-1.04-1.1-1.04-.6 0-1.1.47-1.1 1.04v2.36c0 .32-.3.57-.66.57-.36 0-.66-.25-.66-.57v-.28c0-.6-.49-1.08-1.1-1.08-.6 0-1.1.48-1.1 1.08v3.27c0 .6.5 1.1 1.1 1.1.61 0 1.1-.5 1.1-1.1v-.27c0-.32.3-.57.66-.57.37 0 .66.25.66.57v3.74c0 .57.5 1.04 1.1 1.04.6 0 1.1-.47 1.1-1.04v-5.1c0-.32.3-.58.66-.58.36 0 .65.26.65.58v2.57c0 .57.5 1.04 1.1 1.04.6 0 1.1-.47 1.1-1.04v-1.89c0-.32.3-.58.66-.58.36 0 .66.26.66.58v2.02c0 .57.49 1.04 1.1 1.04.6 0 1.1-.47 1.1-1.04v-7.26c0-.58-.5-1.04-1.1-1.04zM24.7 17c-.6 0-1.09.47-1.09 1.04v4.15c0 .57.5 1.04 1.1 1.04.6 0 1.1-.47 1.1-1.04v-4.15c0-.57-.5-1.04-1.1-1.04zm3.52 2.1c-.6 0-1.1.48-1.1 1.05v1.03c0 .58.5 1.04 1.1 1.04.6 0 1.1-.46 1.1-1.04v-1.03c0-.57-.5-1.04-1.1-1.04z"/></symbol>
    <symbol id="google" viewBox="0 0 38 38" fill="currentColor" fill-rule="evenodd"><path d="M35 19a16 16 0 11-32 0 16 16 0 0132 0zm-6.46-2.11c-.75 0-1.36.61-1.36 1.36v1.5a1.36 1.36 0 102.72 0v-1.5c0-.75-.6-1.36-1.36-1.36zm-6.07-3.1a1.36 1.36 0 112.72 0v1.49a1.36 1.36 0 01-2.72 0v-1.49zm1.36 4.22c-.75 0-1.36.6-1.36 1.36v4.84a1.36 1.36 0 102.72 0v-4.84c0-.75-.6-1.36-1.36-1.36zm-6.2-8.56a1.36 1.36 0 012.73 0v1.5a1.36 1.36 0 11-2.72 0v-1.5zM19 25.7c-.75 0-1.36.6-1.36 1.36v1.49a1.36 1.36 0 102.72 0v-1.5c0-.74-.61-1.35-1.36-1.35zm-1.36-10.67a1.36 1.36 0 112.72 0v7.94a1.36 1.36 0 11-2.72 0v-7.94zm-3.48 6.33c-.75 0-1.36.6-1.36 1.36v1.49a1.36 1.36 0 102.73 0v-1.49c0-.75-.61-1.36-1.37-1.36zm-1.36-7.57a1.36 1.36 0 112.73 0v4.84a1.36 1.36 0 01-2.73 0v-4.84zm-3.35 3.1c-.75 0-1.36.61-1.36 1.36v1.5a1.36 1.36 0 102.73 0v-1.5c0-.75-.61-1.36-1.37-1.36z"/></symbol>
    <symbol id="overcast" viewBox="0 0 38 38" fill="currentColor" fill-rule="evenodd"><path d="M19 28.67l1.2-1.2-1.2-4.6-1.2 4.6 1.2 1.2zM17.47 28.6l-.6 2.27 1.4-1.4-.8-.87zM20.53 28.6l-.8.8 1.4 1.4-.6-2.2z"/><path d="M35 19a16 16 0 11-32 0 16 16 0 0132 0zM21.67 32.73L19 30.07l-2.67 2.66a4.93 4.93 0 01-1.93-.53l3-11.13a2.67 2.67 0 011.6-4.8c1.47 0 2.67 1.2 2.67 2.66 0 .87-.4 1.6-1.07 2.14l3 11.13c-.77.3-1.19.42-1.93.53zm-10.4-6.6c-.47.34-1.07.2-1.4-.2-.14-.13-2.2-2.86-2.2-6.93s2.06-6.8 2.2-6.93c.33-.4.93-.54 1.4-.2a.9.9 0 01.2 1.33s-1.8 2.4-1.8 5.8 1.8 5.8 1.8 5.8c.33.4.2 1-.2 1.33zm16.86-.2c-.33.4-.93.54-1.4.2a.9.9 0 01-.2-1.33s1.8-2.4 1.8-5.8-1.8-5.8-1.8-5.8a.9.9 0 01.2-1.33c.47-.34 1.07-.2 1.4.2.14.13 2.2 2.86 2.2 6.93s-2.06 6.8-2.2 6.93zm-4.86-2.6c-.4-.4-.34-1.13.06-1.53 0 0 1-1.07 1-2.8a4.4 4.4 0 00-1-2.8c-.4-.4-.4-1.07-.06-1.53.4-.47 1-.47 1.4-.07a6.65 6.65 0 010 8.8c-.4.4-1 .33-1.4-.07zm-9.94.07c.4.4 1 .33 1.4-.07.4-.46.34-1.13-.06-1.53 0 0-1-1.07-1-2.8a4.4 4.4 0 011-2.8c.4-.4.46-1.13.06-1.53-.33-.47-1-.47-1.4-.07 0 .02-.04.05-.08.11-.35.43-1.58 1.95-1.58 4.29s1.23 3.86 1.58 4.29l.08.11z"/></symbol>
    <symbol id="pocket" viewBox="0 0 38 38" fill="currentColor" fill-rule="evenodd"><path d="M19 35a16 16 0 100-32 16 16 0 000 32zm0-28.44a12.44 12.44 0 100 24.88v-3.1A9.33 9.33 0 1128.33 19h3.11c0-6.87-5.57-12.44-12.44-12.44zM11.53 19A7.47 7.47 0 0019 26.47v-2.72A4.75 4.75 0 1123.75 19h2.72a7.47 7.47 0 00-14.94 0z"/></symbol>
    <symbol id="rss" viewBox="0 0 38 38" fill="currentColor" fill-rule="evenodd"><path d="M9.88 3h18.24C31.93 3 35 6.08 35 9.88v18.24c0 3.8-3.08 6.88-6.88 6.88H9.88A6.87 6.87 0 013 28.12V9.88C3 6.08 6.08 3 9.88 3zm10.3 14.82A14.4 14.4 0 0124.4 28H28a18 18 0 00-18-18v3.6a14.4 14.4 0 0110.18 4.22zM21.93 28h-3.5A8.43 8.43 0 0010 19.57v-3.5A11.93 11.93 0 0121.93 28zm-9.46 0a2.47 2.47 0 100-4.94 2.47 2.47 0 000 4.94z"/></symbol>
    <symbol id="spotify" viewBox="0 0 38 38" fill="currentColor" fill-rule="evenodd"><path d="M19 35a16 16 0 100-32 16 16 0 000 32zM9.9 15.02c5.06-1.55 13.8-1.26 19.09 1.92.73.43 1.67.2 2.1-.55.43-.73.2-1.69-.53-2.13-6.1-3.65-15.74-4-21.55-2.22A1.56 1.56 0 008 13.98c.25.82 1.1 1.29 1.92 1.04zm17.02 7.48c.6.37 1.37.18 1.74-.42.36-.61.18-1.4-.42-1.78-5-3.15-12.3-4.03-18.19-2.2a1.3 1.3 0 00-.84 1.6c.2.69.9 1.08 1.57.87 5.15-1.6 11.79-.8 16.14 1.93zm-1.48 4.36c.48.28 1.11.13 1.41-.33a.96.96 0 00-.34-1.36c-4.33-2.54-9.7-3.13-15.95-1.76a.98.98 0 00-.76 1.18c.12.53.67.86 1.22.74 5.72-1.25 10.57-.74 14.42 1.53z"/></symbol>
    <symbol id="twitter" viewBox="0 0 38 38" fill="currentColor" fill-rule="evenodd"><path d="M19 35a16 16 0 100-32 16 16 0 000 32zm7.9-18.77v-.5a7.74 7.74 0 001.88-1.95c-.7.3-1.43.5-2.18.6a3.82 3.82 0 001.67-2.1c-.75.44-1.56.75-2.41.92a3.79 3.79 0 00-6.45 3.46 10.76 10.76 0 01-7.81-3.96 3.79 3.79 0 001.18 5.05c-.6-.02-1.2-.18-1.72-.47v.04a3.79 3.79 0 003.04 3.72c-.56.15-1.15.18-1.71.07a3.79 3.79 0 003.54 2.63 7.6 7.6 0 01-5.61 1.57 10.7 10.7 0 005.8 1.7c6.97 0 10.78-5.78 10.78-10.78z"/></symbol>
    <symbol id="mastodon" viewBox="0 0 38 38" fill="currentColor" fill-rule="evenodd"><path d="M22.93 21.49h2.03V16.4c0-1.03-.27-1.86-.8-2.47a2.8 2.8 0 0 0-2.17-.92c-1.04 0-1.83.4-2.35 1.19l-.5.84-.5-.84a2.63 2.63 0 0 0-2.36-1.19c-.9 0-1.62.32-2.17.92-.53.61-.8 1.44-.8 2.47v5.08h2.03v-4.93c0-1.03.44-1.56 1.32-1.56.98 0 1.47.62 1.47 1.86v2.7h2.01v-2.7c0-1.24.5-1.86 1.47-1.86.88 0 1.32.53 1.32 1.56v4.93Z"/><path d="M35 19a16 16 0 1 1-32 0 16 16 0 0 1 32 0Zm-11.28-8.76c2.13.32 3.93 1.92 4.2 3.97.13 1.21.07 3.04.04 3.92l-.01.47-.03 1.32c-.18 2.92-2.02 4.07-3.95 4.43a.73.73 0 0 1-.07.02h-.02c-1.22.24-2.53.3-3.77.34h-.9a15.77 15.77 0 0 1-3.7-.42.04.04 0 0 0-.02.04c.04.38.12.76.25 1.13.17.42.75 1.44 2.92 1.44a16.08 16.08 0 0 0 3.76-.42l.01.01v1.47l-.01.02a4.82 4.82 0 0 1-1.4.6l-.63.16c-1.9.43-3.9.33-5.75-.3-1.73-.6-3.5-2.08-3.93-3.85-.23-.95-.4-1.93-.49-2.9-.1-1.08-.13-2.16-.16-3.23l-.04-1.22c-.04-1.04-.02-2.16.2-3.18.46-2.07 2.35-3.51 4.42-3.82l.14-.02c.41-.07 1.27-.22 4.05-.22h.02c3.15 0 4.52.2 4.87.24Z"/></symbol>
</svg>
