<svg xmlns="http://www.w3.org/2000/svg" viewBox="0 0 1500 1500">
    <path fill="white" d="M0 0h1500v1500H0z"/>
    <path fill="none" stroke="hotpink" stroke-width="60" d="M30 180h1145v1140H30V180z"/>
    <path fill="black" d="M307.96 726.94h-74.27V923h-62.66V726.94H97.46v-50.7h210.5v50.7zM445.72 730.46c20.88 0 37.66 6.68 50.33 20.06 12.68 13.14 19.01 30.74 19.01 52.8V923h-60.9V820.22c0-11.03-3.04-19.72-9.15-26.05-5.86-6.57-13.96-9.86-24.28-9.86-11.74 0-21.12 4.23-28.16 12.67-7.04 8.45-10.56 19.25-10.56 32.39V923h-60.9V661.82h60.9V764.6c13.37-22.3 34.61-33.68 63.7-34.14zM640.99 731.16c32.85 0 57.49 10.1 73.91 30.27 16.67 20.18 23.94 47.87 21.83 83.07h-133.4c3.04 11.27 8.44 19.95 16.18 26.05 7.75 6.1 17.25 9.15 28.51 9.15 17.37 0 32.5-6.45 45.41-19.36l32.04 31.33c-20.42 22.3-48 33.44-82.73 33.44-30.74 0-55.26-8.8-73.56-26.4-18.07-17.6-27.1-40.95-27.1-70.05 0-29.33 9.03-52.91 27.1-70.75 18.3-17.83 42.24-26.75 71.8-26.75zm-38.73 80.6h76.04c0-11.5-3.4-20.76-10.21-27.8-6.57-7.04-15.37-10.56-26.4-10.56-10.33 0-19 3.52-26.05 10.56-7.04 6.8-11.5 16.07-13.38 27.8zM302.33 1032.88H182.3v57.02h110.52v49.28H182.3V1230h-62.66V983.6h182.69v49.28zM419.73 1141.3H326.8v-38.37h92.93v38.37zM740.76 1230h-64.42l-45.76-170.37L584.12 1230h-64.77l-80.6-246.4h66.87l48.23 181.28L601 983.6h61.25l48.23 181.28L758 983.6h64.06L740.76 1230zM909.57 1038.16c30.97 0 55.97 8.92 74.97 26.75 19.01 17.6 28.52 40.95 28.52 70.05 0 29.1-9.51 52.57-28.51 70.4-19.01 17.83-44 26.75-74.98 26.75-31.21 0-56.32-8.92-75.33-26.75-19-17.83-28.51-41.3-28.51-70.4 0-29.1 9.5-52.45 28.51-70.05 19-17.83 44.12-26.75 75.33-26.75zm0 48.22c-12.67 0-23 4.58-30.98 13.73-7.74 9.15-11.61 21-11.61 35.55 0 14.79 3.87 26.76 11.61 35.91 7.98 8.92 18.3 13.37 30.98 13.37 12.44 0 22.53-4.45 30.27-13.37 7.98-9.15 11.97-21.12 11.97-35.91 0-14.55-3.99-26.4-11.97-35.55-7.74-9.15-17.83-13.73-30.27-13.73zM1106.59 1040.27v32.03c13.38-22.76 33.91-34.37 61.6-34.84v54.91c-17.37-1.64-31.56 1.29-42.59 8.8-11.03 7.27-17.37 17.72-19.01 31.33v97.5h-60.9v-189.73h60.9zM1387.05 968.82V1230h-60.9v-24.99c-13.84 18.3-32.85 27.45-57.02 27.45-26.75 0-48.22-9.03-64.42-27.1-16.19-18.07-24.28-41.77-24.28-71.1 0-29.1 7.97-52.45 23.93-70.05 15.96-17.6 37.08-26.4 63.36-26.4 25.11 0 44.59 9.15 58.43 27.45v-96.44h60.9zm-133.76 202.75c7.74 9.15 17.95 13.73 30.62 13.73 12.67 0 22.88-4.58 30.63-13.73 7.74-9.15 11.61-21.12 11.61-35.91 0-14.55-3.87-26.4-11.61-35.55-7.75-9.15-17.96-13.73-30.63-13.73-12.67 0-22.88 4.58-30.62 13.73-7.74 8.92-11.73 20.77-11.97 35.55.24 14.79 4.23 26.76 11.97 35.91z"/>
</svg>
