<svg xmlns="http://www.w3.org/2000/svg">
    <symbol id="twitter" viewBox="0 0 38 38"><circle cx="19" cy="19" r="16" fill="#1da1f2"/><path d="M26.9 15.73v.5c0 5-3.81 10.78-10.78 10.78-2.06 0-4.07-.6-5.8-1.7a7.6 7.6 0 005.6-1.57 3.79 3.79 0 01-3.54-2.63c.57.1 1.16.08 1.71-.07a3.79 3.79 0 01-3.04-3.71v-.05c.53.3 1.12.45 1.72.47a3.79 3.79 0 01-1.17-5.05 10.76 10.76 0 007.8 3.96 3.79 3.79 0 016.46-3.46 7.71 7.71 0 002.41-.92 3.82 3.82 0 01-1.67 2.1 7.67 7.67 0 002.18-.6 7.74 7.74 0 01-1.88 1.95z" fill="#fff"/></symbol>
</svg>
